<?xml version="1.0" standalone="no"?>
<!DOCTYPE svg PUBLIC "-//W3C//DTD SVG 20010904//EN"
 "http://www.w3.org/TR/2001/REC-SVG-20010904/DTD/svg10.dtd">
<svg version="1.0" xmlns="http://www.w3.org/2000/svg"
 width="260.000000pt" height="260.000000pt" viewBox="0 0 260.000000 260.000000"
 preserveAspectRatio="xMidYMid meet">
<metadata>
Created by potrace 1.11, written by Peter Selinger 2001-2013
</metadata>
<g transform="translate(0.000000,260.000000) scale(0.100000,-0.100000)"
fill="#000000" stroke="none">
<path d="M1411 2499 c-91 -61 -131 -132 -131 -236 0 -46 -3 -54 -17 -51 -11 2
-20 17 -25 41 -18 85 -90 187 -156 221 -71 36 -147 27 -205 -24 -45 -39 -94
-149 -118 -262 -27 -123 -39 -455 -18 -469 8 -5 17 -9 20 -9 3 0 9 64 13 142
21 405 98 588 248 588 39 0 54 -6 82 -31 62 -54 92 -165 121 -444 8 -88 18
-167 21 -177 6 -19 31 -31 39 -18 8 13 24 201 25 290 0 119 24 254 57 318 38
78 80 99 161 83 154 -31 211 -140 231 -446 10 -148 15 -169 39 -197 24 -28 32
-21 32 25 0 24 5 48 12 55 9 9 9 12 0 12 -20 0 -32 73 -41 242 -10 189 -19
217 -84 274 -86 76 -122 96 -188 103 -60 7 -63 7 -118 -30z"/>
<path d="M951 2219 c-11 -18 -24 -54 -28 -79 -11 -60 -10 -315 0 -413 8 -66
12 -80 33 -94 14 -9 27 -13 30 -11 15 16 35 177 40 335 6 158 5 188 -10 227
-26 67 -41 75 -65 35z"/>
<path d="M1526 2202 c-2 -4 -10 -39 -17 -77 -30 -175 30 -435 101 -435 26 0
40 28 29 57 -17 46 -41 198 -48 315 -6 101 -11 123 -26 134 -21 16 -32 17 -39
6z"/>
<path d="M1912 1965 c-18 -15 -32 -31 -32 -36 0 -5 38 -9 84 -9 83 0 86 -1
148 -43 69 -47 121 -115 139 -180 27 -99 -21 -224 -127 -335 -58 -60 -64 -69
-54 -91 9 -19 15 -22 38 -16 46 11 71 34 119 108 74 114 97 178 97 272 0 101
-30 172 -106 248 -67 67 -135 100 -213 105 -55 4 -64 1 -93 -23z"/>
<path d="M509 1712 c-120 -77 -196 -230 -187 -376 12 -172 126 -290 293 -304
59 -4 189 11 211 26 7 4 9 21 7 40 -5 29 -8 32 -40 32 -20 0 -72 -8 -117 -17
-106 -22 -161 -9 -221 52 -53 52 -69 108 -63 217 6 124 69 242 149 284 37 19
46 18 54 -6 7 -23 33 -27 41 -5 12 30 -5 63 -37 74 -42 14 -39 15 -90 -17z"/>
<path d="M1492 1583 c-17 -43 -23 -113 -15 -168 7 -44 11 -50 34 -53 23 -3 27
1 32 35 10 57 8 158 -3 187 -12 34 -35 33 -48 -1z"/>
<path d="M1780 1545 c-16 -19 4 -53 35 -61 69 -17 76 46 7 65 -23 7 -34 6 -42
-4z"/>
<path d="M1019 1523 c-20 -38 -18 -152 3 -185 16 -25 21 -26 49 -16 29 10 31
13 25 52 -3 22 -8 67 -12 99 -4 41 -12 60 -25 67 -24 13 -24 14 -40 -17z"/>
<path d="M1747 1372 c-22 -24 -5 -52 31 -52 33 0 52 16 52 43 0 15 -5 18 -22
14 -12 -4 -27 -2 -33 3 -8 7 -17 4 -28 -8z"/>
<path d="M747 1357 c-11 -8 -14 -17 -8 -26 11 -17 41 -7 41 13 0 21 -15 27
-33 13z"/>
<path d="M1293 1318 c-61 -22 -114 -47 -117 -55 -3 -8 0 -24 8 -36 7 -12 19
-44 25 -71 22 -90 74 -164 128 -180 28 -9 54 30 83 121 17 57 50 219 50 251 0
22 -62 12 -177 -30z m105 -90 c-6 -71 -49 -178 -72 -178 -8 0 -23 24 -36 63
-44 125 -46 111 29 146 36 17 70 31 75 31 5 0 6 -28 4 -62z"/>
<path d="M706 1254 c-13 -35 -7 -44 33 -44 44 0 59 20 35 45 -20 20 -60 19
-68 -1z"/>
<path d="M1894 1135 c-3 -8 11 -45 31 -82 116 -213 146 -278 185 -403 23 -74
54 -173 68 -219 27 -88 60 -140 80 -127 17 10 15 32 -14 142 -51 197 -203 551
-283 662 -32 43 -57 53 -67 27z"/>
<path d="M842 1025 c-24 -61 -33 -133 -52 -437 -11 -172 -25 -362 -31 -421
l-12 -109 27 -26 27 -27 25 30 c13 17 28 43 33 58 9 25 7 29 -17 39 -15 7 -28
13 -30 14 -1 1 6 104 17 230 27 310 42 602 33 644 l-8 34 -12 -29z"/>
<path d="M1426 780 l-70 -50 -26 25 c-83 79 -240 31 -240 -73 0 -33 -14 -60
-79 -158 -43 -66 -85 -133 -94 -151 -15 -28 -15 -32 -1 -37 9 -3 17 -6 19 -6
2 0 31 38 65 85 58 81 80 101 80 73 0 -7 -11 -67 -24 -133 -22 -110 -23 -121
-8 -133 9 -6 20 -12 24 -12 16 0 47 83 58 155 6 39 13 78 16 88 6 21 32 23 40
2 3 -8 38 -40 77 -71 40 -32 88 -76 108 -98 21 -23 39 -39 42 -36 2 3 32 57
67 120 35 63 65 117 67 119 2 3 50 -41 107 -98 60 -59 109 -101 115 -97 26 16
9 52 -52 111 -74 70 -115 128 -119 170 -3 27 0 30 31 33 22 2 40 -3 55 -16 11
-11 31 -25 43 -31 19 -9 24 -8 33 8 5 11 10 23 10 28 0 4 -34 26 -75 48 -74
40 -75 40 -81 88 -15 111 -76 127 -188 47z m118 -37 c14 -62 -79 -318 -125
-346 -11 -7 -31 -3 -71 15 -112 51 -188 151 -188 244 0 54 17 73 67 74 28 0
38 -8 73 -55 22 -30 44 -55 47 -55 4 0 41 34 84 75 42 41 84 75 92 75 9 0 18
-12 21 -27z"/>
</g>
</svg>
